<svg xmlns="http://www.w3.org/2000/svg" width="209.264" height="42.216" viewBox="0 0 209.264 42.216"><defs><style>.a{fill:#fac001;}</style></defs><g transform="translate(362.365 169.584)"><path class="a" d="M47.209,35.677l-2.571-1.791-.158.28a15.74,15.74,0,0,1-13.535,7.846,11.073,11.073,0,0,1-1.291-.11h-.439l-12.8,3.911,1.425-10.891-.061-.073a15.691,15.691,0,1,1,26.6-16.617l.146.256,2.546-1.34-.158-.28A18.774,18.774,0,0,0,14.218,35.311l.11.207h0L12.646,50l16.69-4.715h.146c.463,0,.926.061,1.377.061A18.847,18.847,0,0,0,47.075,35.92Z" transform="translate(-374.418 -177.372)"/><path class="a" d="M55.571,17.54A11.48,11.48,0,1,0,67.04,29.02,11.48,11.48,0,0,0,55.571,17.54Zm0,20.448a8.979,8.979,0,1,1,8.968-8.968,8.979,8.979,0,0,1-8.968,8.968Z" transform="translate(-366.146 -176.14)"/><path class="a" d="M128.14,21.545a7.179,7.179,0,0,1,4.712-1.745,5.912,5.912,0,0,1,3.756,1.111,5.734,5.734,0,0,1,1.956,3.334,26.292,26.292,0,0,1,.322,5.123V39.726h2.5V28.635a17.781,17.781,0,0,0-.9-6.568,7.324,7.324,0,0,0-2.767-3.334,7.646,7.646,0,0,0-4.3-1.234,9.124,9.124,0,0,0-4.445,1.111,11.735,11.735,0,0,0-3.723,3.334l-.3.4v-4.29h-2.5V39.815h2.5V31.892a29.117,29.117,0,0,1,.445-6.057,8.224,8.224,0,0,1,2.745-4.29Z" transform="translate(-357.422 -176.144)"/><path class="a" d="M458.82,187.62h-4.5v-8.19h-2.5v8.19H447.94v2.123h3.878v19.6h2.5v-19.6h4.5Z" transform="translate(-661.042 -345.675)"/><path class="a" d="M74.007,21.545A7.179,7.179,0,0,1,78.73,19.8a5.9,5.9,0,0,1,3.745,1.111,5.734,5.734,0,0,1,1.956,3.334,25.98,25.98,0,0,1,.322,5.123V39.726h2.5V28.635a17.781,17.781,0,0,0-.9-6.568,7.324,7.324,0,0,0-2.767-3.334A7.635,7.635,0,0,0,79.3,17.5a9.135,9.135,0,0,0-4.445,1.111,11.736,11.736,0,0,0-3.723,3.334l-.3.4v-4.29H68.35V39.815h2.5V31.892a29.94,29.94,0,0,1,.445-6.057,8.224,8.224,0,0,1,2.712-4.29Z" transform="translate(-363.444 -176.145)"/><path class="a" d="M404.69,187.62h-4.5v-8.19h-2.5v8.19H393.81v2.123h3.878v19.6h2.5v-19.6h4.5Z" transform="translate(-667.067 -345.675)"/><path class="a" d="M120.741,33.991l-2.1-1.111a13.492,13.492,0,0,1-2.367,3.034,8.7,8.7,0,0,1-2.767,1.578,9.558,9.558,0,0,1-3.334.6,8.035,8.035,0,0,1-5.99-2.512,9.18,9.18,0,0,1-2.5-6.412V29H121.53a11.758,11.758,0,0,0-2.4-7.279,10.78,10.78,0,0,0-8.891-4.212,10.435,10.435,0,0,0-8.613,4.112,11.9,11.9,0,0,0,.478,15.325,10.4,10.4,0,0,0,8.313,3.478,12.08,12.08,0,0,0,4.3-.722,10.969,10.969,0,0,0,3.423-2.123A12.969,12.969,0,0,0,120.741,33.991Zm-18.77-7.312a9.7,9.7,0,0,1,2.634-4.645,8.268,8.268,0,0,1,5.69-2.123,8.89,8.89,0,0,1,3.823.845,8.012,8.012,0,0,1,2.934,2.223,9.779,9.779,0,0,1,1.689,3.7v.2H101.916Z" transform="translate(-360.025 -176.144)"/><path class="a" d="M174.871,33.991l-2.1-1.111a13.491,13.491,0,0,1-2.367,3.034,8.7,8.7,0,0,1-2.767,1.578,9.557,9.557,0,0,1-3.334.6,8.035,8.035,0,0,1-5.99-2.512,9.179,9.179,0,0,1-2.5-6.412V29H175.66a11.758,11.758,0,0,0-2.4-7.279,10.78,10.78,0,0,0-8.891-4.212,10.435,10.435,0,0,0-8.613,4.112,11.9,11.9,0,0,0,.478,15.325,10.4,10.4,0,0,0,8.313,3.478,12.08,12.08,0,0,0,4.3-.722,10.969,10.969,0,0,0,3.423-2.123,12.97,12.97,0,0,0,2.6-3.59ZM156.1,26.679a9.7,9.7,0,0,1,2.634-4.645,8.268,8.268,0,0,1,5.69-2.123,8.891,8.891,0,0,1,3.823.845,8.013,8.013,0,0,1,2.934,2.223,9.779,9.779,0,0,1,1.689,3.7v.2H156.046Z" transform="translate(-354 -176.144)"/><path class="a" d="M195.625,36.886l.3-.367v4.09h2.467V10.37h-2.467V23.295l-.3-.422a11.113,11.113,0,0,0-3.812-3.423,10.368,10.368,0,0,0-4.834-1.111,10.8,10.8,0,0,0-7.935,3.334,11.113,11.113,0,0,0-3.334,8.035,11.269,11.269,0,0,0,3.267,8.146,11.013,11.013,0,0,0,12.658,2.223,11.88,11.88,0,0,0,3.99-3.189Zm-3.934.811a9.013,9.013,0,0,1-4.545,1.156,8.646,8.646,0,0,1-4.445-1.211,8.979,8.979,0,0,1-3.267-3.334,9.146,9.146,0,0,1,0-9.079,8.746,8.746,0,0,1,7.712-4.523,8.557,8.557,0,0,1,6.39,2.589,8.968,8.968,0,0,1,2.567,6.523,9.269,9.269,0,0,1-1.111,4.6,8.313,8.313,0,0,1-3.3,3.323Z" transform="translate(-351.494 -176.938)"/></g></svg>